<?xml version="1.0" encoding="UTF-8" standalone="no"?>
<!-- Created with Inkscape (http://www.inkscape.org/) -->

<svg
   xmlns:dc="http://purl.org/dc/elements/1.1/"
   xmlns:cc="http://creativecommons.org/ns#"
   xmlns:rdf="http://www.w3.org/1999/02/22-rdf-syntax-ns#"
   xmlns:svg="http://www.w3.org/2000/svg"
   xmlns="http://www.w3.org/2000/svg"
   xmlns:xlink="http://www.w3.org/1999/xlink"
   xmlns:sodipodi="http://sodipodi.sourceforge.net/DTD/sodipodi-0.dtd"
   xmlns:inkscape="http://www.inkscape.org/namespaces/inkscape"
   width="128"
   height="128"
   id="svg2997"
   version="1.1"
   inkscape:version="0.48.1 r9760"
   sodipodi:docname="favicon128x128.svg"
   inkscape:export-filename="/home/wiliam/devel/gunclub/gunclub/static/img/logo2.png"
   inkscape:export-xdpi="90"
   inkscape:export-ydpi="90">
  <defs
     id="defs2999">
    <style
       id="style6"
       type="text/css" />
    <linearGradient
       id="linearGradient3848">
      <stop
         id="stop3850"
         offset="0"
         style="stop-color:#111111;stop-opacity:1;" />
      <stop
         style="stop-color:#262626;stop-opacity:1;"
         offset="0.970595"
         id="stop3856" />
      <stop
         id="stop3852"
         offset="1"
         style="stop-color:#3b3b3b;stop-opacity:1;" />
    </linearGradient>
    <linearGradient
       id="linearGradient3868">
      <stop
         id="stop3870"
         offset="0"
         style="stop-color:#1a1a1a;stop-opacity:1;" />
      <stop
         style="stop-color:#3a3737;stop-opacity:1;"
         offset="0.95413572"
         id="stop3876" />
      <stop
         id="stop3872"
         offset="1"
         style="stop-color:#272424;stop-opacity:1;" />
    </linearGradient>
    <linearGradient
       id="linearGradient3878">
      <stop
         id="stop3880"
         offset="0"
         style="stop-color:#313a3c;stop-opacity:1;" />
      <stop
         style="stop-color:#616161;stop-opacity:1;"
         offset="0.97224128"
         id="stop3886" />
      <stop
         id="stop3882"
         offset="1"
         style="stop-color:#494949;stop-opacity:1;" />
    </linearGradient>
    <linearGradient
       id="linearGradient4031">
      <stop
         id="stop4033"
         offset="0"
         style="stop-color:#6a797d;stop-opacity:0.33333334;" />
      <stop
         style="stop-color:#a7a8a8;stop-opacity:0.11347517;"
         offset="0.5462504"
         id="stop4039" />
      <stop
         id="stop4035"
         offset="1"
         style="stop-color:#abb8bc;stop-opacity:0.12056737;" />
    </linearGradient>
    <radialGradient
       inkscape:collect="always"
       xlink:href="#linearGradient3878"
       id="radialGradient3211"
       gradientUnits="userSpaceOnUse"
       gradientTransform="matrix(0.0781782,0,0,0.07817251,29.070054,-65.374232)"
       cx="318.88614"
       cy="234.38393"
       fx="318.88614"
       fy="234.38393"
       r="214.79688" />
    <radialGradient
       inkscape:collect="always"
       xlink:href="#linearGradient3878"
       id="radialGradient3212"
       gradientUnits="userSpaceOnUse"
       gradientTransform="matrix(0.0781782,0,0,0.07817251,29.070054,-65.374232)"
       cx="318.88614"
       cy="234.38393"
       fx="318.88614"
       fy="234.38393"
       r="214.79688" />
  </defs>
  <sodipodi:namedview
     id="base"
     pagecolor="#ffffff"
     bordercolor="#666666"
     borderopacity="1.0"
     inkscape:pageopacity="0.0"
     inkscape:pageshadow="2"
     inkscape:zoom="3.53421"
     inkscape:cx="64.907385"
     inkscape:cy="62.353034"
     inkscape:current-layer="layer1"
     showgrid="true"
     inkscape:grid-bbox="true"
     inkscape:document-units="px"
     inkscape:window-width="1366"
     inkscape:window-height="708"
     inkscape:window-x="0"
     inkscape:window-y="31"
     inkscape:window-maximized="1" />
  <metadata
     id="metadata3002">
    <rdf:RDF>
      <cc:Work
         rdf:about="">
        <dc:format>image/svg+xml</dc:format>
        <dc:type
           rdf:resource="http://purl.org/dc/dcmitype/StillImage" />
        <dc:title></dc:title>
      </cc:Work>
    </rdf:RDF>
  </metadata>
  <g
     id="layer1"
     inkscape:label="Layer 1"
     inkscape:groupmode="layer"
     transform="translate(0,96)">
    <text
       xml:space="preserve"
       style="font-size:27px;font-style:normal;font-variant:normal;font-weight:bold;font-stretch:normal;line-height:125%;letter-spacing:0px;word-spacing:0px;fill:#6e6e6e;fill-opacity:1;stroke:none;font-family:Ubuntu;-inkscape-font-specification:Ubuntu Bold"
       x="1.6679688"
       y="26.086641"
       id="text3059"
       sodipodi:linespacing="125%"><tspan
         sodipodi:role="line"
         id="tspan3061"
         x="1.6679688"
         y="26.086641">Gun</tspan></text>
    <text
       xml:space="preserve"
       style="font-size:28px;font-style:normal;font-variant:normal;font-weight:bold;font-stretch:normal;line-height:125%;letter-spacing:0px;word-spacing:0px;fill:#d03229;fill-opacity:1;stroke:none;font-family:Ubuntu;-inkscape-font-specification:Ubuntu Bold"
       x="61.482113"
       y="26.266922"
       id="text3063"
       sodipodi:linespacing="125%"><tspan
         sodipodi:role="line"
         id="tspan3065"
         x="61.482113"
         y="26.266922">club</tspan></text>
    <g
       transform="matrix(2.0785694,0,0,2.0785694,-158.01416,-624.92311)"
       id="Shape_17_2_">
      <g
         id="g1403">
        <path
           inkscape:connector-curvature="0"
           d="m 136.42,263.282 c 0,-0.336 -0.5,-0.479 -0.5,-0.479 0,0 0.078,-1.467 -0.659,-1.467 -0.339,0 -1.173,0 -1.173,0 0,0 -0.328,-0.58 -0.774,-0.58 -0.206,0 -0.404,0.58 -0.404,0.58 0,0 -20.251,0 -20.439,0 -0.188,0 -0.23,0.206 -0.23,0.206 l -8.142,0 c 0,0 -0.091,-0.206 -0.247,-0.206 -0.157,0 -17.54,0 -17.54,0 0,0 -0.238,-1.068 -0.349,-1.069 -0.307,-0.005 -0.656,0.007 -0.893,0.003 -0.112,-0.002 -0.479,1.066 -0.479,1.066 0,0 -1.181,0 -1.714,0 -0.75,0 -0.75,0.817 -0.75,0.817 l 0,5.175 c 0,0 -0.25,0.306 -0.321,0.625 -0.038,0.172 -0.006,0.919 0.191,1.175 0.227,0.291 1.425,0.224 2.038,0.279 0.614,0.056 2.233,1.118 2.485,2.152 0.251,1.034 -0.057,3.494 -0.419,4.864 -0.363,1.369 -1.393,5.368 -2.68,7.269 -1.72,2.537 -3.382,4.794 -4.359,6.751 -0.977,1.957 -1.643,3.815 -1.811,4.766 -0.167,0.951 0.031,1.488 0.404,2.02 0.346,0.491 1.644,1.293 1.867,1.405 0.224,0.111 1.022,0.377 1.022,0.377 0,0 -0.024,0.224 0.087,0.392 0.112,0.168 0.711,1.22 0.998,1.22 l 10.57,0 c 0.727,0 1.09,-0.398 1.208,-0.73 0.105,-0.295 -0.099,-1.212 -0.099,-1.212 0,0 0.408,-0.126 0.772,-0.818 0.267,-0.51 0.017,-1.703 0.076,-2.376 0.073,-0.817 1.006,-2.761 1.313,-3.348 0.307,-0.587 1.054,-0.629 1.267,-1.037 0.186,-0.357 -0.327,-1.456 -0.222,-1.728 0.184,-0.48 0.83,-1.942 1.083,-2.41 0.255,-0.475 0.981,-0.338 1.232,-0.734 0.333,-0.524 -0.341,-1.491 -0.224,-1.788 0.099,-0.245 1.159,-2.356 1.647,-3.3 0.248,-0.479 1.259,-0.457 1.828,-0.454 0.643,0.003 1.864,0.934 2.562,0.962 0.698,0.027 10.036,-0.151 10.539,-0.179 0.503,-0.028 0.904,-0.212 1.116,-0.37 0.37,-0.276 0.475,-0.709 0.391,-0.933 -0.083,-0.224 -0.469,-1.124 -0.606,-1.479 -0.08,-0.205 -0.121,-4.031 -0.053,-4.186 0.067,-0.152 0.936,-0.97 1.197,-0.986 3.558,-0.208 9.216,-0.411 11.104,-0.548 0.01,0 0.038,-0.179 0.038,-0.179 l 1.085,0.004 0.042,0.175 c 0,0 0.59,0 1.421,0 1.376,0 3.716,-0.482 4.302,-0.702 0.496,-0.187 0.74,-1.513 0.74,-2.439 0,-0.643 -0.003,-2.795 -0.003,-2.795 0,0 0.433,-0.192 0.461,-0.5 0.031,-0.309 0.004,-2.78 0.004,-3.251 z m -22.136,14.456 c -0.224,0.699 -0.963,1.677 -2.107,1.761 -1.144,0.084 -6.924,0.112 -7.259,0.07 -0.483,-0.061 -1.989,-0.661 -2.317,-1.412 -0.319,-0.729 -0.377,-1.579 -0.209,-2.11 0.168,-0.531 0.517,-0.866 0.517,-0.866 0,0 0.344,0.062 0.391,0.377 0.042,0.279 -0.16,0.525 -0.069,0.629 0.028,0.033 0.558,0 0.948,0 0.253,0 0.573,0.224 0.601,0.504 0.028,0.279 -0.042,0.643 0.015,0.712 0.056,0.07 0.6,0 0.6,0 0,0 0.391,0.56 1.005,0.979 0.614,0.42 1.428,0.884 1.843,0.937 0.754,0.098 0.475,-0.419 0.475,-0.419 0,0 0.34,-0.019 0.502,-0.237 0.088,-0.118 0.054,-0.389 -0.655,-0.867 -0.727,-0.489 -1.382,-1.09 -1.577,-1.732 -0.195,-0.644 -0.321,-1.37 -0.21,-1.817 0.112,-0.447 0.251,-0.881 0.251,-0.881 0,0 2.833,-0.395 4.313,-0.395 1.299,0 2.251,0.894 2.624,1.331 0.654,0.766 0.472,2.956 0.318,3.436 z"
           style="fill-rule:evenodd"
           id="path1405" />
      </g>
    </g>
  </g>
</svg>
